<?xml version="1.0" encoding="UTF-8"?>
<svg version="1.1" viewBox="0 0 912 960" width="1280" height="1280" xmlns="http://www.w3.org/2000/svg">
  <path transform="translate(530,142)" d="m0 0h11l21 2 24 5 13 5 18 9 13 4 17 7 11 5v2l6 4 9 11 8 17 4 16 2 11-1 13-5 21-7 19-8 15-10 16-21 31-50 75-17 26-12 18-29 43-20 30-17 26-11 18-1 3 26-5 29-8 13-4 4-2h11l15-5 16-6 4-1h9l9 6 3 7 1 7 5 1 12-3 9-2 6 2 6 7 1 4v45l-1 45-2 39-2 13-5 4-16 5-19 5-49 11-29 6-30 5-22 3-31 3-34 2h-45l-20-4-3-1v-2l-9-1-10-4-25-9-18-6-16-8-11-7-10-8-5-5-8-9-4-4-4-8-5-24v-16l5-26 6-19 6-16 12-25 6-10 11-18 44-66 7-10 10-15 11-16 13-19 11-16 10-15 7-12 1-6-2-1 5-2 6-10 9-13 5-7 1-3-36 6-25 5-13 4-26 5h-10l-5-4h-1l-2-10-28 1-6-1 1-2-5-3-4-1-1-5v-66l2-74 6-8 9-4 36-6 56-8 71-11 48-7 44-5z" fill="#54E2E8"/>
  <path transform="translate(658,179)" d="m0 0 19 3 14 5 14 9 9 9 9 14 5 10 4 13 2 9v17l-4 20-5 16-7 17-10 17-8 11-11 16-14 22-9 14-20 30-9 12-7 11-9 13-10 16-11 16-14 20-7 11-12 19-10 15-7 11-4 3-34 10-27 6h-7l1-4 13-22 38-57 25-37 12-18 13-20 22-33 29-43 7-11 24-36 9-16 7-17 4-13 4-20-1-14-4-17-5-12-6-11-6-6v-2l-4-2-3-3z" fill="#EC06F0"/>
  <path transform="translate(655,586)" d="m0 0 3 1 2 10 1 4 7-1 11-5 4-1h9l8 5 4 5 3 8v9l-2 10-2 108-2 13-4 5-13 5-30 8-45 10-71 12-15 1-9 2-25 2-15 2-32 1-14-1-25-4-19-6-17-8-21-6-24-9-10-4-10-3-13-4-15-7v-2l-4-1-6-3-1-2-7-4-12-11-4-5 1-2 6 7 13 10 13 8 16 8 30 10 20 7 4 2 6 1v2l11 2 12 2h45l46-3 34-4 25-4 37-7 69-16 16-5 6-3 2-6 2-26 1-21 1-45v-45z" fill="#EC06F0"/>
  <path transform="translate(438,336)" d="m0 0h10l3 4-1 8-6 10-10 5-3 1v5l2 2-1 5-5 6-6 8-9 15-13 19-7 10h-2l-2 6-2 4-8 13-7 11-9 12-12 15-10 15-8 13-6 10-2-1-6 10v3l-18 27-10 19-8 15-7 17-6 20-2 9-4 30-1 13 2 27 1 9-10-6-9-9v-2l-3-1-5-7-4-7-3-8h-1v-20l2-16v-8l2-4 2-9 3-11 6-12 3-8h2l2-7 4-7 6-10 6-8 4-7 8-11 5-8h2l2-5 5-7 6-11 7-13 4-6 3-2 5-10 3-2 1-3h2l1-5 9-11 6-7 4-10 6-7 9-14 6-12 6-9 10-13 10-14 8-15 12-18 2-6 1-2h3v2h4v3l1-5v-2l13-4z" fill="#07FAFD"/>
  <path transform="translate(261,192)" d="m0 0h4l-1 9 3 5 9-2 2 1 6-1 2 2v18l-2 3-7 1 2 4 3 3 1 2 1 23v24l-1 32v9l-3 6-4 2-2 5h-15l-2-4-3-3-1-4v-61l2-61 3-10z" fill="#07FAFD"/>
  <path transform="translate(655,595)" d="m0 0 2 2v40l-1 45-2 39-2 13-5 4-16 5-19 5-49 11-29 6-30 5-22 3-31 3-34 2h-45l-20-4-3-1 1-2 5 1 4-1 13 1 23 1h43l28-2 3-1 15-1 16-2 2-1 13-2 9-2 20-3 19-4 18-5 16-3 17-3 15-5 12-6 1-11 2-10v-24l2 1 2-10 1-19 1-30 3-12h-3l-5-1-2-1 1-5 5-1 4-12z" fill="#6AD5E9"/>
  <path transform="translate(400,337)" d="m0 0h8l-1 4-16 24-5 7-24 4-7 2-5 1-10-4-6-8-3-9-20 2h-7l-3-2h7v-2l26-5 18-5 36-7z" fill="#EC06F0"/>
  <path transform="translate(692,595)" d="m0 0 6 2 6 7 3 8v9l-2 10-2 108-2 13-4 5-13 5-30 8-45 10"/>
</svg>